<svg xmlns="http://www.w3.org/2000/svg" viewBox="0 0 432.11 156.02"><defs><style>.cls-1,.cls-3,.cls-4{fill:#377a94;}.cls-1{stroke:#377a94;stroke-miterlimit:10;stroke-width:11px;}.cls-2{fill:#fff;}.cls-2,.cls-3{fill-rule:evenodd;}</style></defs><title>BBBbutton</title><g id="Layer_2" data-name="Layer 2"><g id="Layer_1-2" data-name="Layer 1"><rect class="cls-1" x="5.5" y="5.5" width="421.11" height="145.02" rx="20.08" ry="20.08"/><path class="cls-2" d="M153.11,5.5H25.58A20.08,20.08,0,0,0,5.5,25.58V130.44a20.08,20.08,0,0,0,20.08,20.08H153.11Z"/><path class="cls-3" d="M75.48,50.59l-6.27,8.64c-3.14,4.33-2.17,12,2.12,15.1L83,82.72c2,1.44,2.15,2.87,1.21,4.39l1.69,1.25,5.89-8.15c3.64-5,3.32-11.9-2.07-15.82L77.94,55.85c-1.4-1-1.55-2.45-.77-4.05l-1.69-1.21Z"/><path class="cls-3" d="M85.54,12.4l-9.76,13.5c-4.58,6.33-2.91,17.15,3.34,21.74L95.17,59.43c3.25,2.39,3.68,8.47,1.31,11.59l1.36,1,11.07-15.58c5-7,4.68-17.33-3.12-23L88.62,21c-2.4-1.75-3.6-4.71-1.6-7.54l-1.48-1Z"/><path class="cls-3" d="M59.81,97.09H72.75l2.31,7.84H96.2l2.31-7.84h12.94l-1.7-5.77H61.51l-1.7,5.77Z"/><path class="cls-3" d="M70.93,129.28c-.55-3.73-2.05-4.62-5.06-5.95a6.68,6.68,0,0,0,3.67-6c0-5.36-4.39-7.54-9.18-7.54H47v28.45H60.24C65.9,138.27,71.9,135.79,70.93,129.28Zm-17.9-14h7c4.34,0,4.5,6.07.27,6.07H53Zm7.75,17.63H53V126.4h7.75C66.49,126.4,66.14,132.89,60.79,132.89Z"/><path class="cls-3" d="M97.5,129.28c-.55-3.73-2.06-4.62-5.06-5.95a6.68,6.68,0,0,0,3.67-6c0-5.36-4.39-7.54-9.18-7.54H73.55v28.45H86.8C92.46,138.27,98.46,135.79,97.5,129.28Zm-17.9-14h7c4.34,0,4.5,6.07.27,6.07H79.6Zm7.75,17.63H79.6V126.4h7.75C93.05,126.4,92.71,132.89,87.35,132.89Z"/><path class="cls-3" d="M124.06,129.28c-.55-3.73-2.05-4.62-5.06-5.95a6.68,6.68,0,0,0,3.67-6c0-5.36-4.39-7.54-9.18-7.54H100.11v28.45h13.25C119,138.27,125,135.79,124.06,129.28Zm-17.9-14h7c4.34,0,4.5,6.07.27,6.07h-7.22Zm7.75,17.63h-7.75V126.4h7.75C119.62,126.4,119.27,132.89,113.92,132.89Z"/><path class="cls-2" d="M219.08,61.32a14.39,14.39,0,0,0-6.56-4.23,13.22,13.22,0,0,0-3.48-.43,12.1,12.1,0,0,0-4.93,1,11.29,11.29,0,0,0-3.84,2.75,12.64,12.64,0,0,0-2.51,4.24,15.77,15.77,0,0,0-.9,5.44,16.78,16.78,0,0,0,.86,5.55,12.11,12.11,0,0,0,2.45,4.22,10.89,10.89,0,0,0,3.78,2.69,12.22,12.22,0,0,0,4.89.95c3.32,0,9.06-1.82,10.7-5L215.64,75c-1.11,1.76-4.57,3.34-6.65,3.34a5.83,5.83,0,0,1-2.74-.63,6,6,0,0,1-2.06-1.75,7.92,7.92,0,0,1-1.27-2.62,11.76,11.76,0,0,1-.43-3.25,12.06,12.06,0,0,1,.43-3.32,7.94,7.94,0,0,1,1.25-2.6,5.77,5.77,0,0,1,2-1.71,6,6,0,0,1,2.74-.61A9.06,9.06,0,0,1,215.28,65l3.8-3.66Z"/><polygon class="cls-2" points="294.12 83.08 294.12 77.99 279.99 77.99 279.99 71.71 291.36 71.71 291.36 66.66 279.99 66.66 279.99 62.16 293.53 62.16 293.53 57.08 274.51 57.08 274.51 83.08 294.12 83.08 294.12 83.08"/><path class="cls-2" d="M319.37,64a10.62,10.62,0,0,0-2.86-4,11,11,0,0,0-4.3-2.25,20.32,20.32,0,0,0-5.42-.69h-8.58v26h8.19a18.17,18.17,0,0,0,5.15-.74A13,13,0,0,0,316,80a11.46,11.46,0,0,0,3.17-4,13.41,13.41,0,0,0,1.19-5.89A15.64,15.64,0,0,0,319.37,64Zm-5.11,9.29a6.66,6.66,0,0,1-1.53,2.51,6.85,6.85,0,0,1-2.61,1.62,10.94,10.94,0,0,1-3.74.58h-2.7V62.13h2.9q4.34,0,6.26,2t1.92,6A9.83,9.83,0,0,1,314.26,73.33Z"/><polygon class="cls-2" points="331.19 83.08 331.19 57.08 325.71 57.08 325.71 83.08 331.19 83.08 331.19 83.08"/><polygon class="cls-2" points="356.73 62.2 356.73 57.08 335.51 57.08 335.51 62.2 343.38 62.2 343.38 83.08 348.86 83.08 348.86 62.2 356.73 62.2 356.73 62.2"/><path class="cls-2" d="M405.14,64a10.58,10.58,0,0,0-2.86-4,11,11,0,0,0-4.3-2.25,20.32,20.32,0,0,0-5.42-.69H384v26h8.18a18.18,18.18,0,0,0,5.15-.74,13,13,0,0,0,4.5-2.32A11.51,11.51,0,0,0,405,76a13.41,13.41,0,0,0,1.19-5.89A15.6,15.6,0,0,0,405.14,64ZM400,73.33a6.64,6.64,0,0,1-1.52,2.51,6.86,6.86,0,0,1-2.61,1.62,11,11,0,0,1-3.74.58h-2.7V62.13h2.9q4.34,0,6.26,2t1.92,6A9.83,9.83,0,0,1,400,73.33Z"/><polygon class="cls-2" points="379.87 83.08 379.87 77.99 365.74 77.99 365.74 71.71 377.11 71.71 377.11 66.66 365.74 66.66 365.74 62.16 379.28 62.16 379.28 57.08 360.25 57.08 360.25 83.08 379.87 83.08 379.87 83.08"/><polygon class="cls-2" points="334.01 116.66 334.01 111.57 319.88 111.57 319.88 105.29 331.25 105.29 331.25 100.24 319.88 100.24 319.88 95.74 333.42 95.74 333.42 90.65 314.39 90.65 314.39 116.66 334.01 116.66 334.01 116.66"/><path class="cls-2" d="M244.39,61.32a14.39,14.39,0,0,0-6.56-4.23,13.22,13.22,0,0,0-3.48-.43,12.1,12.1,0,0,0-4.93,1,11.28,11.28,0,0,0-3.84,2.75,12.64,12.64,0,0,0-2.51,4.24,15.77,15.77,0,0,0-.9,5.44,16.8,16.8,0,0,0,.86,5.55,12.12,12.12,0,0,0,2.45,4.22,10.88,10.88,0,0,0,3.78,2.69,12.23,12.23,0,0,0,4.89.95c3.32,0,9.06-1.82,10.7-5L240.95,75c-1.11,1.76-4.57,3.34-6.64,3.34a5.84,5.84,0,0,1-2.74-.63,6.05,6.05,0,0,1-2.06-1.75,7.91,7.91,0,0,1-1.27-2.62,11.74,11.74,0,0,1-.43-3.25,12,12,0,0,1,.43-3.32,7.92,7.92,0,0,1,1.25-2.6,5.77,5.77,0,0,1,2-1.71,6,6,0,0,1,2.74-.61A9.06,9.06,0,0,1,240.59,65l3.8-3.66Z"/><path class="cls-2" d="M220.92,104.7a6.67,6.67,0,0,0-2.67-2.12,5.6,5.6,0,0,0,2.08-2.08,5.87,5.87,0,0,0,.74-3,6.06,6.06,0,0,0-2.29-5.11,9.86,9.86,0,0,0-6.18-1.76H200.36v26h12.13a13.21,13.21,0,0,0,3.89-.54,8.31,8.31,0,0,0,3-1.6,7.18,7.18,0,0,0,1.93-2.64,9,9,0,0,0,.69-3.62A5.74,5.74,0,0,0,220.92,104.7Zm-15.33-9.25h6.79a4,4,0,0,1,2.52.63,2.27,2.27,0,0,1,.76,1.86A2.43,2.43,0,0,1,215,99.7a3.2,3.2,0,0,1-2.35.69h-7.06Zm10,15.36a4,4,0,0,1-2.88.91h-7.09V105h7.09q3.82,0,3.81,3.34A3.29,3.29,0,0,1,215.56,110.81Z"/><path class="cls-2" d="M247.18,105.18V90.65h-5.34v14.6a7.56,7.56,0,0,1-1.47,4.94,4.94,4.94,0,0,1-4,1.78,4.83,4.83,0,0,1-4-1.82,7.78,7.78,0,0,1-1.45-5V90.65h-5.34v14.6a15,15,0,0,0,.78,5.05,10.46,10.46,0,0,0,2.19,3.7,9.18,9.18,0,0,0,3.41,2.28,12,12,0,0,0,4.41.78,10.31,10.31,0,0,0,8-3.1q2.86-3.1,2.86-8.79Z"/><path class="cls-2" d="M271.72,108.78a6.86,6.86,0,0,0-.8-3.49,7.06,7.06,0,0,0-2.08-2.27,10.51,10.51,0,0,0-2.86-1.39q-1.58-.5-3.19-.87t-2.63-.67a8.31,8.31,0,0,1-1.64-.63,2.15,2.15,0,0,1-.86-.76,2.08,2.08,0,0,1-.25-1.06,2,2,0,0,1,.19-.85,2,2,0,0,1,.65-.74,3.72,3.72,0,0,1,1.18-.54,6.75,6.75,0,0,1,1.79-.2,7.7,7.7,0,0,1,3.3.69,9.78,9.78,0,0,1,2.76,2l3.85-3.64a14.36,14.36,0,0,0-4.25-3,14.07,14.07,0,0,0-9.19-.56,9.45,9.45,0,0,0-3,1.51,7.18,7.18,0,0,0-2,2.4,6.76,6.76,0,0,0-.74,3.19,7.59,7.59,0,0,0,.61,3.23,5.78,5.78,0,0,0,1.72,2.15,9.69,9.69,0,0,0,2.65,1.41,27.87,27.87,0,0,0,3.37,1q1.87.41,3.05.78a7.57,7.57,0,0,1,1.81.78,2.33,2.33,0,0,1,.86.87,2.44,2.44,0,0,1,.23,1.1,2.32,2.32,0,0,1-1.13,2.15,7.13,7.13,0,0,1-3.53.67,9.91,9.91,0,0,1-3.68-.69,8.25,8.25,0,0,1-3.15-2.29l-3.85,3.34a10.3,10.3,0,0,0,4.27,3.45,14.43,14.43,0,0,0,6.1,1.26,16.41,16.41,0,0,0,4.71-.59,9.07,9.07,0,0,0,3.26-1.69,6.63,6.63,0,0,0,1.91-2.62,9,9,0,0,0,.61-3.38Z"/><polygon class="cls-2" points="281.38 116.66 281.38 90.65 276.05 90.65 276.05 116.66 281.38 116.66 281.38 116.66"/><path class="cls-2" d="M308.56,116.66v-26h-5.27v11c0,.37,0,.83,0,1.38s0,1.1,0,1.67,0,1.06,0,1.54,0,.85,0,1.1a15.57,15.57,0,0,0-.82-1.36l-1-1.58L292,90.65h-5.11v26h5.26V105.22q0-.56,0-1.37c0-.55,0-1.09,0-1.63s0-1.1,0-1.58,0-.85,0-1.1a14.64,14.64,0,0,0,.82,1.36l1,1.58,9.8,14.19Z"/><path class="cls-2" d="M355.82,108.78a6.86,6.86,0,0,0-.8-3.49,7.07,7.07,0,0,0-2.08-2.27,10.5,10.5,0,0,0-2.86-1.39q-1.59-.5-3.19-.87t-2.63-.67a8.34,8.34,0,0,1-1.64-.63,2.13,2.13,0,0,1-.86-.76,2.06,2.06,0,0,1-.25-1.06,1.9,1.9,0,0,1,.84-1.6,3.69,3.69,0,0,1,1.18-.54,6.74,6.74,0,0,1,1.79-.2,7.69,7.69,0,0,1,3.3.69,9.77,9.77,0,0,1,2.76,2l3.85-3.64a14.38,14.38,0,0,0-4.25-3,14.07,14.07,0,0,0-9.19-.56,9.45,9.45,0,0,0-3,1.51,7.17,7.17,0,0,0-2,2.4,6.73,6.73,0,0,0-.74,3.19,7.57,7.57,0,0,0,.61,3.23,5.78,5.78,0,0,0,1.72,2.15,9.69,9.69,0,0,0,2.65,1.41,27.87,27.87,0,0,0,3.38,1q1.87.41,3.05.78a7.66,7.66,0,0,1,1.81.78,2.32,2.32,0,0,1,.86.87,2.44,2.44,0,0,1,.23,1.1,2.31,2.31,0,0,1-1.12,2.15,7.13,7.13,0,0,1-3.53.67,9.91,9.91,0,0,1-3.68-.69A8.24,8.24,0,0,1,338.8,109l-3.85,3.34a10.3,10.3,0,0,0,4.27,3.45,14.42,14.42,0,0,0,6.1,1.26,16.41,16.41,0,0,0,4.71-.59,9,9,0,0,0,3.26-1.69,6.61,6.61,0,0,0,1.91-2.62,9,9,0,0,0,.61-3.38Z"/><path class="cls-2" d="M378.76,108.78a6.87,6.87,0,0,0-.8-3.49,7.07,7.07,0,0,0-2.08-2.27,10.5,10.5,0,0,0-2.86-1.39q-1.59-.5-3.19-.87t-2.63-.67a8.26,8.26,0,0,1-1.64-.63,2.13,2.13,0,0,1-.86-.76,2.07,2.07,0,0,1-.25-1.06,1.9,1.9,0,0,1,.84-1.6,3.72,3.72,0,0,1,1.18-.54,6.75,6.75,0,0,1,1.79-.2,7.69,7.69,0,0,1,3.3.69,9.81,9.81,0,0,1,2.77,2l3.85-3.64a14.37,14.37,0,0,0-4.25-3,14.08,14.08,0,0,0-9.2-.56,9.46,9.46,0,0,0-3,1.51,7.2,7.2,0,0,0-2,2.4,6.73,6.73,0,0,0-.74,3.19,7.55,7.55,0,0,0,.61,3.23,5.78,5.78,0,0,0,1.71,2.15,9.7,9.7,0,0,0,2.65,1.41,27.88,27.88,0,0,0,3.38,1q1.87.41,3,.78a7.65,7.65,0,0,1,1.81.78,2.35,2.35,0,0,1,.86.87,2.48,2.48,0,0,1,.23,1.1,2.31,2.31,0,0,1-1.12,2.15,7.13,7.13,0,0,1-3.53.67,9.9,9.9,0,0,1-3.68-.69,8.23,8.23,0,0,1-3.15-2.29l-3.85,3.34a10.3,10.3,0,0,0,4.27,3.45,14.43,14.43,0,0,0,6.1,1.26,16.41,16.41,0,0,0,4.71-.59,9.06,9.06,0,0,0,3.26-1.69,6.59,6.59,0,0,0,1.91-2.62,9,9,0,0,0,.61-3.38Z"/><path class="cls-2" d="M185.53,57.08H180.2l-10.49,26h5.87l2.15-5.8h10l2.15,5.8h6Zm-5.91,15.27,1.76-4.72q.43-1.15.8-2.23t.57-1.82q.2.74.57,1.82t.8,2.23l1.76,4.72Z"/><path class="cls-2" d="M265,73.2a10.35,10.35,0,0,0,4.57-3.07,9.35,9.35,0,0,0,.57-8.43,7.39,7.39,0,0,0-2-2.58,8.56,8.56,0,0,0-3-1.54,13,13,0,0,0-3.64-.5H248.69v26h5.48V73.72l4.88.22,5.73,9.14h6.3Zm-3.67-4.38h-7.16V62.13h7.16a4.78,4.78,0,0,1,2.88.76,3,3,0,0,1,1,2.54Q265.25,68.81,261.33,68.82Z"/><path class="cls-4" d="M130.11,135.41a2.63,2.63,0,1,1-2.63-2.56A2.58,2.58,0,0,1,130.11,135.41Zm-4.61,0a2,2,0,0,0,2,2,2,2,0,0,0,2-2,2,2,0,1,0-4,0Zm1.58,1.34h-.59v-2.56a5.21,5.21,0,0,1,1-.08,1.6,1.6,0,0,1,.89.19.71.71,0,0,1,.25.56.66.66,0,0,1-.53.59v0a.76.76,0,0,1,.47.63,1.94,1.94,0,0,0,.19.64h-.64a2.19,2.19,0,0,1-.2-.62c0-.28-.2-.41-.53-.41h-.28Zm0-1.45h.28c.33,0,.59-.11.59-.38s-.17-.39-.55-.39a1.44,1.44,0,0,0-.33,0Z"/></g></g></svg>