<svg xmlns="http://www.w3.org/2000/svg" viewBox="0 0 25.23 25.23"><defs><style>.cls-1{fill:#004983;}.cls-2{fill:#fff;}</style></defs><title>BlogColor</title><g id="Layer_2" data-name="Layer 2"><g id="Layer_1-2" data-name="Layer 1"><rect class="cls-1" width="25.23" height="25.23" rx="3.15" ry="3.15"/><path class="cls-2" d="M3.36,16.48V8.75h1.4a2,2,0,0,1,1.5.42A2.34,2.34,0,0,1,7,10.91a1.83,1.83,0,0,1-.78,1.6,2.06,2.06,0,0,1,.89,1.8,2.08,2.08,0,0,1-2.36,2.17ZM4.79,10v1.89a.86.86,0,0,0,.86-1C5.65,10.38,5.34,10,4.79,10Zm0,3.08V15.2c.58,0,.91-.42.91-1.07S5.36,13.09,4.79,13.11Z"/><path class="cls-2" d="M9.42,8.75v6.3h1.5v1.43H8V8.75Z"/><path class="cls-2" d="M16.43,12.62c0,2.9-1.26,4-2.54,4s-2.54-1.08-2.54-4,1.27-4,2.54-4S16.43,9.71,16.43,12.62Zm-2.54,2.57c.95,0,1-2,1-2.57s-.07-2.58-1-2.58-1,1.89-1,2.58S12.94,15.19,13.89,15.19Z"/><path class="cls-2" d="M21.87,12.17v.61c0,1.64-.38,3.82-2.32,3.82S17,14.37,17,12.66s.53-4,2.58-4a2.21,2.21,0,0,1,2.13,1.83L20.29,11c-.07-.39-.19-1-.73-1-1-.06-1.07,1.85-1.07,2.58s.05,2.57,1.1,2.57c.73,0,.85-1,.85-1.58h-.91V12.17Z"/></g></g></svg>