<svg xmlns="http://www.w3.org/2000/svg" viewBox="0 0 24.8 24.8"><defs><style>.cls-1{fill:#004983;}</style></defs><title>InstagramColor</title><g id="Layer_2" data-name="Layer 2"><g id="Layer_1-2" data-name="Layer 1"><path class="cls-1" d="M12.4,2.23c3.31,0,3.7,0,5,.08a6.77,6.77,0,0,1,2.3.42,4.12,4.12,0,0,1,2.36,2.36,6.71,6.71,0,0,1,.42,2.3c.06,1.31.07,1.7.07,5s0,3.7-.07,5a6.77,6.77,0,0,1-.42,2.3,4.12,4.12,0,0,1-2.36,2.36,6.77,6.77,0,0,1-2.3.42c-1.31.06-1.7.07-5,.07s-3.7,0-5-.07a6.71,6.71,0,0,1-2.3-.42,3.93,3.93,0,0,1-1.43-.93,4,4,0,0,1-.93-1.43,6.77,6.77,0,0,1-.42-2.3c-.06-1.31-.08-1.7-.08-5s0-3.7.08-5a6.71,6.71,0,0,1,.42-2.3,4,4,0,0,1,.93-1.43,3.93,3.93,0,0,1,1.43-.93,6.71,6.71,0,0,1,2.3-.42c1.31-.06,1.7-.08,5-.08M12.4,0C9,0,8.61,0,7.29.08a9,9,0,0,0-3,.57,6.09,6.09,0,0,0-2.2,1.43A6.09,6.09,0,0,0,.65,4.28a9.26,9.26,0,0,0-.58,3C0,8.61,0,9,0,12.4s0,3.79.07,5.11a9.26,9.26,0,0,0,.58,3,6.09,6.09,0,0,0,1.43,2.2,6.09,6.09,0,0,0,2.2,1.43,9.29,9.29,0,0,0,3,.57c1.32.06,1.74.08,5.11.08s3.79,0,5.11-.08a9.29,9.29,0,0,0,3-.57,6.32,6.32,0,0,0,3.63-3.63,9.29,9.29,0,0,0,.57-3c.06-1.32.08-1.74.08-5.11s0-3.79-.08-5.11a9.29,9.29,0,0,0-.57-3,6.09,6.09,0,0,0-1.43-2.2A6.09,6.09,0,0,0,20.52.65a9,9,0,0,0-3-.57C16.19,0,15.77,0,12.4,0"/><path class="cls-1" d="M12.4,2.23c3.31,0,3.7,0,5,.08a6.77,6.77,0,0,1,2.3.42,4.12,4.12,0,0,1,2.36,2.36,6.71,6.71,0,0,1,.42,2.3c.06,1.31.07,1.7.07,5s0,3.7-.07,5a6.77,6.77,0,0,1-.42,2.3,4.12,4.12,0,0,1-2.36,2.36,6.77,6.77,0,0,1-2.3.42c-1.31.06-1.7.07-5,.07s-3.7,0-5-.07a6.71,6.71,0,0,1-2.3-.42,3.93,3.93,0,0,1-1.43-.93,4,4,0,0,1-.93-1.43,6.77,6.77,0,0,1-.42-2.3c-.06-1.31-.08-1.7-.08-5s0-3.7.08-5a6.71,6.71,0,0,1,.42-2.3,4,4,0,0,1,.93-1.43,3.93,3.93,0,0,1,1.43-.93,6.71,6.71,0,0,1,2.3-.42c1.31-.06,1.7-.08,5-.08M12.4,0C9,0,8.61,0,7.29.08a9,9,0,0,0-3,.57,6.09,6.09,0,0,0-2.2,1.43A6.09,6.09,0,0,0,.65,4.28a9.26,9.26,0,0,0-.58,3C0,8.61,0,9,0,12.4s0,3.79.07,5.11a9.26,9.26,0,0,0,.58,3,6.09,6.09,0,0,0,1.43,2.2,6.09,6.09,0,0,0,2.2,1.43,9.29,9.29,0,0,0,3,.57c1.32.06,1.74.08,5.11.08s3.79,0,5.11-.08a9.29,9.29,0,0,0,3-.57,6.32,6.32,0,0,0,3.63-3.63,9.29,9.29,0,0,0,.57-3c.06-1.32.08-1.74.08-5.11s0-3.79-.08-5.11a9.29,9.29,0,0,0-.57-3,6.09,6.09,0,0,0-1.43-2.2A6.09,6.09,0,0,0,20.52.65a9,9,0,0,0-3-.57C16.19,0,15.77,0,12.4,0Z"/><path class="cls-1" d="M12.4,6a6.37,6.37,0,1,0,6.37,6.37A6.37,6.37,0,0,0,12.4,6m0,10.5a4.13,4.13,0,1,1,4.13-4.13,4.13,4.13,0,0,1-4.13,4.13"/><path class="cls-1" d="M12.4,6a6.37,6.37,0,1,0,6.37,6.37A6.37,6.37,0,0,0,12.4,6Zm0,10.5a4.13,4.13,0,1,1,4.13-4.13A4.13,4.13,0,0,1,12.4,16.53Z"/><path class="cls-1" d="M20.51,5.78A1.49,1.49,0,1,1,19,4.29a1.49,1.49,0,0,1,1.49,1.49"/><circle class="cls-1" cx="19.02" cy="5.78" r="1.49"/></g></g></svg>