<svg xmlns="http://www.w3.org/2000/svg" viewBox="0 0 27.5 24.31"><defs><style>.cls-1{fill:#221f20;}.cls-2{fill:#007ab0;}.cls-3{fill:#fff;}</style></defs><title>LinkedInColor</title><g id="Layer_2" data-name="Layer 2"><g id="Layer_1-2" data-name="Layer 1"><path class="cls-1" d="M26.51,19.91a.33.33,0,0,0,.32-.34c0-.24-.15-.35-.44-.35h-.47v1.24h.17v-.54h.23l.34.53h.19l-.37-.55Zm-.21-.13h-.21v-.42h.27c.13,0,.29,0,.29.2S26.49,19.78,26.3,19.78Z"/><path class="cls-1" d="M26.32,18.67a1.18,1.18,0,1,0,1.18,1.17A1.16,1.16,0,0,0,26.32,18.67Zm0,2.2a1,1,0,1,1,1-1A1,1,0,0,1,26.32,20.87Z"/><path class="cls-2" d="M22.51,0H1.79A1.77,1.77,0,0,0,0,1.75V22.56a1.77,1.77,0,0,0,1.79,1.75H22.51a1.78,1.78,0,0,0,1.8-1.75V1.75A1.78,1.78,0,0,0,22.51,0Z"/><path class="cls-3" d="M3.6,9.11H7.21V20.72H3.6ZM5.41,3.35A2.09,2.09,0,1,1,3.32,5.44,2.09,2.09,0,0,1,5.41,3.35"/><path class="cls-3" d="M9.47,9.11h3.46V10.7H13a3.79,3.79,0,0,1,3.41-1.87c3.65,0,4.33,2.4,4.33,5.52v6.37H17.11V15.07c0-1.34,0-3.07-1.87-3.07s-2.16,1.46-2.16,3v5.74H9.47Z"/></g></g></svg>