<svg xmlns="http://www.w3.org/2000/svg" viewBox="0 0 22.76 20.74"><defs><style>.cls-1{isolation:isolate;}.cls-2{opacity:0.75;mix-blend-mode:multiply;}.cls-3{fill:#fff;}</style></defs><title>MenuMobile</title><g class="cls-1"><g id="Layer_2" data-name="Layer 2"><g id="Layer_1-2" data-name="Layer 1"><g class="cls-2"><rect y="1" width="6.97" height="5.99"/><rect y="7.88" width="6.97" height="5.99"/><rect y="14.75" width="6.97" height="5.99"/></g><rect class="cls-3" width="6.97" height="5.99"/><rect class="cls-3" y="6.88" width="6.97" height="5.99"/><rect class="cls-3" y="13.75" width="6.97" height="5.99"/><g class="cls-2"><rect x="7.9" y="1" width="6.97" height="5.99"/><rect x="7.9" y="7.88" width="6.97" height="5.99"/><rect x="7.9" y="14.75" width="6.97" height="5.99"/></g><rect class="cls-3" x="7.9" width="6.97" height="5.99"/><rect class="cls-3" x="7.9" y="6.88" width="6.97" height="5.99"/><rect class="cls-3" x="7.9" y="13.75" width="6.97" height="5.99"/><g class="cls-2"><rect x="15.79" y="1" width="6.97" height="5.99"/><rect x="15.79" y="7.88" width="6.97" height="5.99"/><rect x="15.79" y="14.75" width="6.97" height="5.99"/></g><rect class="cls-3" x="15.79" width="6.97" height="5.99"/><rect class="cls-3" x="15.79" y="6.88" width="6.97" height="5.99"/><rect class="cls-3" x="15.79" y="13.75" width="6.97" height="5.99"/></g></g></g></svg>