<svg xmlns="http://www.w3.org/2000/svg" viewBox="0 0 19.05 19.05"><defs><style>.cls-1{fill:#004983;}</style></defs><title>Outages</title><g id="Layer_2" data-name="Layer 2"><g id="Layer_1-2" data-name="Layer 1"><path class="cls-1" d="M9.52,19.05A9.53,9.53,0,1,1,19,9.53,9.54,9.54,0,0,1,9.52,19.05Zm0-17.18a7.65,7.65,0,1,0,7.65,7.65A7.66,7.66,0,0,0,9.52,1.87Z"/><g id="Layer_1-2-2" data-name="Layer 1-2"><path class="cls-1" d="M11.42,11,9.71,9.18,5.48,14.13,8.78,5.31l2.27,2.45,2.58-3.4,1.85,2.46Z"/></g><polygon class="cls-1" points="7.77 5.32 5.47 2.36 3.8 3.69 6.95 7.78 7.77 5.32"/><polygon class="cls-1" points="12.27 11.23 11.39 12.1 9.81 10.56 9.49 11.04 13.7 16.56 15.38 15.23 12.27 11.23"/></g></g></svg>