<svg xmlns="http://www.w3.org/2000/svg" viewBox="0 0 19.05 19.05"><defs><style>.cls-1{fill:#004983;}</style></defs><title>PayBill</title><g id="Layer_2" data-name="Layer 2"><g id="Layer_1-2" data-name="Layer 1"><g id="Layer_2-2" data-name="Layer 2"><g id="Layer_1-2-2" data-name="Layer 1-2"><path class="cls-1" d="M10.35,14.07V15.6H9.2V14.14a4.45,4.45,0,0,1-1.62-.31A4.33,4.33,0,0,1,6.14,13l1-1.84a3.61,3.61,0,0,0,2.22,1c.51,0,1.15-.29,1.15-.89s-1-.81-1.92-1.16A2.38,2.38,0,0,1,6.68,7.79,2.77,2.77,0,0,1,9.2,4.93V3.45h1.14V4.93a5,5,0,0,1,2.23.7L11.67,7.4a2.55,2.55,0,0,0-1.57-.6c-.54,0-1,.19-1,.68s.81.81,1.2.95c1.39.46,2.66,1,2.66,2.67A2.88,2.88,0,0,1,10.35,14.07Z"/></g></g><path class="cls-1" d="M9.53,19.05A9.53,9.53,0,1,1,19,9.53,9.54,9.54,0,0,1,9.53,19.05Zm0-17.18a7.65,7.65,0,1,0,7.65,7.65A7.66,7.66,0,0,0,9.53,1.87Z"/></g></g></svg>