<svg xmlns="http://www.w3.org/2000/svg" viewBox="0 0 92.57 92.57"><defs><style>.cls-1,.cls-3{fill:#fff;}.cls-1,.cls-2{stroke:#fff;stroke-miterlimit:10;}.cls-2{fill:none;stroke-width:4.31px;}</style></defs><title>PayBillIcon</title><g id="Layer_2" data-name="Layer 2"><g id="Layer_1-2" data-name="Layer 1"><path class="cls-1" d="M44.22,65.54c-6.83-.66-10.67-3.06-13.92-8.1l5.79-4.71c1.82,3,4.75,5.86,9.1,5.86,3.77,0,6.31-2.46,6.31-5.53,0-3.83-4.62-5-9.23-6.9S33,41.89,33,35.6C33,29.52,37.19,25,44.22,23.94V18.85H49V24c4.36.44,7.54,1.81,10.34,4.71l-4.36,5.2a9.87,9.87,0,0,0-7.22-3.34c-2.86,0-5.53,1.81-5.53,4.32,0,3.34,4.68,4.49,9.3,6.4s9.3,4.6,9.3,11.11C60.8,58.64,56.44,64,49,65.26v5.47H44.22Z"/><circle class="cls-2" cx="46.29" cy="46.29" r="44.13"/><path class="cls-3" d="M46.29,6.46A39.83,39.83,0,1,1,6.46,46.29,39.87,39.87,0,0,1,46.29,6.46m0-4.31A44.13,44.13,0,1,0,90.42,46.29,44.13,44.13,0,0,0,46.29,2.15Z"/></g></g></svg>