<svg xmlns="http://www.w3.org/2000/svg" viewBox="0 0 92.57 92.57"><defs><style>.cls-1{fill:none;stroke:#fff;stroke-miterlimit:10;stroke-width:4.31px;}.cls-2{fill:#fff;}</style></defs><title>PowerOutageIcon</title><g id="Layer_2" data-name="Layer 2"><g id="Layer_1-2" data-name="Layer 1"><circle class="cls-1" cx="46.29" cy="46.29" r="44.13"/><path class="cls-2" d="M46.29,6.46A39.83,39.83,0,1,1,6.46,46.29,39.87,39.87,0,0,1,46.29,6.46m0-4.31A44.13,44.13,0,1,0,90.42,46.29,44.13,44.13,0,0,0,46.29,2.15Z"/><polygon class="cls-2" points="54.21 49.77 43.12 35.3 37.23 30.21 34.81 37.62 40.89 45.55 51.38 54 54.21 49.77"/><path class="cls-2" d="M56.78,53.13l-2.08,3.1a3.92,3.92,0,0,1-4.39,1.62L69.69,83.13,76,78.27Z"/><path class="cls-2" d="M33.42,29a4,4,0,0,1,2.73-2.61l.1,0L23,9.1,16.69,14,31.86,33.76Z"/><polygon class="cls-2" points="60.6 20.87 70.03 26.16 51.38 54 40.01 44.84 23.29 73.03 37.23 30.21 49.88 41.14 60.6 20.87"/></g></g></svg>