<svg xmlns="http://www.w3.org/2000/svg" viewBox="0 0 286.49 31.5"><defs><style>.cls-1{fill:#004983;}</style></defs><title>SRPHorizontalLogo</title><g id="Layer_2" data-name="Layer 2"><g id="Layer_1-2" data-name="Layer 1"><path class="cls-1" d="M18.32,0h1.08L36.27,6.82,34.86,12H6C4.49,6.36,10.51,0,18.32,0Z"/><polygon class="cls-1" points="24.81 0 38.19 0 36.83 4.88 24.81 0"/><path class="cls-1" d="M6.52,14H29a9.21,9.21,0,0,1,3.88,10.14c-2,6.47-9.49,7.34-10.46,7.34H0L3.11,20.28h9.45a20.92,20.92,0,0,1-3.95-3.09A14.15,14.15,0,0,1,6.52,14Z"/><polygon class="cls-1" points="49.1 11.97 37.41 11.97 38.6 7.79 49.1 11.97"/><polygon class="cls-1" points="39.16 5.83 50.05 10.23 40.54 0.76 39.16 5.83"/><polygon class="cls-1" points="42.63 0 48.69 0 51.69 9.04 42.63 0"/><polygon class="cls-1" points="50.83 0 53.74 8.76 56.67 0 50.83 0"/><path class="cls-1" d="M46,31.5H32L36.83,14H67.29a9.46,9.46,0,0,1-1.77,2.59,11.26,11.26,0,0,1-3.71,2.18L65,28.72,69.14,14H99.5a7.5,7.5,0,0,1-3,3.82,16.42,16.42,0,0,1-8.58,2.8h-6l-.9-3.3L77,31.5H52.94L49.38,19.25Z"/><path class="cls-1" d="M58.38,12h9.79a13.61,13.61,0,0,0,.26-2,15,15,0,0,0-.07-2Z"/><path class="cls-1" d="M55.43,9.25l7.92-7.87a8.56,8.56,0,0,0-2.1-.95A26,26,0,0,0,58.49,0Z"/><path class="cls-1" d="M65.07,2.48l-7.68,7.68L67.72,6a9.2,9.2,0,0,0-1.14-2A12.78,12.78,0,0,0,65.07,2.48Z"/><polygon class="cls-1" points="73.03 0 82.54 0 71.84 4.33 73.03 0"/><path class="cls-1" d="M69.71,12l1.42-5.14L88,0h2.22a11,11,0,0,1,8.67,5.18c2.23,3.45,1.37,6.8,1.19,6.8Z"/><path class="cls-1" d="M111.75,15.78h2.19c3.24,0,5.92,1.71,5.92,5.22s-2.63,5.34-6,5.34h-2.14Zm1.32,9.36h.46c2.69,0,5-1,5-4.08s-2.33-4.08-5-4.08h-.46Z"/><path class="cls-1" d="M121.92,23.28a2.06,2.06,0,0,0,2,2.17,2.14,2.14,0,0,0,2-1.27l1.06.6a3.41,3.41,0,0,1-3,1.79,3.19,3.19,0,0,1-3.22-3.45c0-2,1.08-3.53,3.19-3.53s3.07,1.54,3.07,3.49v.2Zm3.74-1a1.77,1.77,0,0,0-1.81-1.64A1.88,1.88,0,0,0,122,22.32Z"/><path class="cls-1" d="M129.43,26.34h-1.26V14.19h1.26Z"/><path class="cls-1" d="M133.13,16.79a.87.87,0,0,1-1.74,0,.87.87,0,1,1,1.74,0Zm-.24,9.55h-1.26V19.79h1.26Z"/><path class="cls-1" d="M137.27,23.88l1.89-4.09h1.42l-3.31,6.78L134,19.79h1.42Z"/><path class="cls-1" d="M142.15,23.28a2.06,2.06,0,0,0,2,2.17,2.14,2.14,0,0,0,2-1.27l1.06.6a3.41,3.41,0,0,1-3,1.79,3.19,3.19,0,0,1-3.22-3.45c0-2,1.08-3.53,3.19-3.53s3.07,1.54,3.07,3.49v.2Zm3.74-1a1.77,1.77,0,0,0-1.81-1.64,1.88,1.88,0,0,0-1.86,1.64Z"/><path class="cls-1" d="M149.69,20.85h0a1.89,1.89,0,0,1,1.79-1.26,2,2,0,0,1,1,.32L152,21.06a1.1,1.1,0,0,0-.77-.27c-1.36,0-1.53,1.26-1.53,2.33v3.22h-1.26V19.79h1.26Z"/><path class="cls-1" d="M155.17,16.79a.87.87,0,0,1-1.74,0,.87.87,0,1,1,1.74,0Zm-.24,9.55h-1.26V19.79h1.26Z"/><path class="cls-1" d="M158.33,20.67h0a2.24,2.24,0,0,1,2-1.08c1.85,0,2.33,1.25,2.33,2.84v3.91H161.4V22.59c0-1.12-.15-1.88-1.44-1.88-1.62,0-1.62,1.43-1.62,2.62v3h-1.26V19.79h1.26Z"/><path class="cls-1" d="M170.65,26.22c0,2.25-.64,3.88-3.19,3.88a2.92,2.92,0,0,1-3.17-3h1.26a1.78,1.78,0,0,0,2,1.85c1.55,0,1.88-1.07,1.88-2.41V25.32h0a2.71,2.71,0,0,1-2.23,1.25c-2,0-3.14-1.67-3.14-3.54a3.21,3.21,0,0,1,3.08-3.43,2.65,2.65,0,0,1,2.28,1.32h0V19.79h1.26Zm-1.19-3.15a2.15,2.15,0,0,0-2.13-2.35,2.17,2.17,0,0,0-2.07,2.35,2.12,2.12,0,1,0,4.2,0Z"/><path class="cls-1" d="M178.83,24l1.93-4.54L182.68,24l1.9-4.17H186l-3.33,6.78-1.92-4.38-1.93,4.38-3.33-6.78h1.43Z"/><path class="cls-1" d="M192.91,26.34h-1.26v-1h0a2.69,2.69,0,0,1-2.23,1.25c-2,0-3.14-1.67-3.14-3.54a3.21,3.21,0,0,1,3.1-3.43,2.68,2.68,0,0,1,2.27,1.29h0V19.79h1.26Zm-1.19-3.28a2.15,2.15,0,0,0-2.13-2.35,2.17,2.17,0,0,0-2.07,2.35,2.12,2.12,0,1,0,4.2,0Z"/><path class="cls-1" d="M196.11,26.34h-1.26V21h-.69V19.79h.69V17.28h1.26v2.51h1.23V21h-1.23Z"/><path class="cls-1" d="M198.91,23.28a2.06,2.06,0,0,0,2,2.17,2.15,2.15,0,0,0,2-1.27l1.06.6a3.41,3.41,0,0,1-3,1.79,3.19,3.19,0,0,1-3.22-3.45c0-2,1.08-3.53,3.19-3.53s3.07,1.54,3.07,3.49v.2Zm3.74-1a1.77,1.77,0,0,0-1.81-1.64A1.88,1.88,0,0,0,199,22.32Z"/><path class="cls-1" d="M206.46,20.85h0a1.88,1.88,0,0,1,1.79-1.26,2,2,0,0,1,1,.32l-.57,1.15a1.11,1.11,0,0,0-.77-.27c-1.36,0-1.53,1.26-1.53,2.33v3.22H205.2V19.79h1.26Z"/><path class="cls-1" d="M220.48,26.34h-1.26v-1h0A2.69,2.69,0,0,1,217,26.57c-2,0-3.14-1.67-3.14-3.54a3.21,3.21,0,0,1,3.1-3.43,2.68,2.68,0,0,1,2.27,1.29h0V19.79h1.26Zm-1.19-3.28a2.15,2.15,0,0,0-2.13-2.35,2.17,2.17,0,0,0-2.07,2.35,2.12,2.12,0,1,0,4.2,0Z"/><path class="cls-1" d="M223.5,20.67h0a2.24,2.24,0,0,1,2-1.08c1.85,0,2.33,1.25,2.33,2.84v3.91h-1.26V22.59c0-1.12-.15-1.88-1.44-1.88-1.62,0-1.62,1.43-1.62,2.62v3h-1.26V19.79h1.26Z"/><path class="cls-1" d="M234.57,25.32h0a2.71,2.71,0,0,1-2.23,1.25c-2,0-3.14-1.67-3.14-3.54a3.21,3.21,0,0,1,3.08-3.43,2.69,2.69,0,0,1,2.28,1.29h0v-6.7h1.26V26.34h-1.26Zm.07-2.25a2.15,2.15,0,0,0-2.13-2.35,2.17,2.17,0,0,0-2.07,2.35,2.12,2.12,0,1,0,4.2,0Z"/><path class="cls-1" d="M242.93,20.88h0a2.69,2.69,0,0,1,2.28-1.29A3.21,3.21,0,0,1,248.32,23c0,1.88-1.12,3.54-3.14,3.54A2.7,2.7,0,0,1,243,25.32h0V30.1h-1.26V19.79h1.26Zm4.13,2.19a2.15,2.15,0,0,0-2.13-2.35,2.17,2.17,0,0,0-2.07,2.35,2.12,2.12,0,1,0,4.2,0Z"/><path class="cls-1" d="M256.09,23.08a3.5,3.5,0,1,1-3.5-3.49A3.45,3.45,0,0,1,256.09,23.08Zm-5.74,0a2.24,2.24,0,1,0,2.24-2.28A2.27,2.27,0,0,0,250.35,23.08Z"/><path class="cls-1" d="M259.6,24l1.93-4.54L263.46,24l1.91-4.17h1.43l-3.33,6.78-1.92-4.38-1.93,4.38-3.33-6.78h1.43Z"/><path class="cls-1" d="M268.3,23.28a2.06,2.06,0,0,0,2,2.17,2.14,2.14,0,0,0,2-1.27l1.07.6a3.41,3.41,0,0,1-3,1.79A3.19,3.19,0,0,1,267,23.12c0-2,1.08-3.53,3.19-3.53s3.07,1.54,3.07,3.49v.2Zm3.74-1a1.77,1.77,0,0,0-1.81-1.64,1.87,1.87,0,0,0-1.86,1.64Z"/><path class="cls-1" d="M275.84,20.85h0a1.89,1.89,0,0,1,1.79-1.26,2,2,0,0,1,1,.32l-.57,1.15a1.11,1.11,0,0,0-.77-.27c-1.36,0-1.53,1.26-1.53,2.33v3.22h-1.26V19.79h1.26Z"/><path class="cls-1" d="M281.79,16.14h-1V19h-.7V16.14h-1v-.61h2.78Zm4.7,2.82h-.7V16.23h0l-1,2.73h-.68l-1-2.73h0V19h-.7V15.53h1.22l.8,2.25h0l.83-2.25h1.21Z"/></g></g></svg>