<svg xmlns="http://www.w3.org/2000/svg" viewBox="0 0 69.99 20.32"><defs><style>.cls-1,.cls-2{fill:#004983;}.cls-2{fill-rule:evenodd;}</style></defs><title>SRPLogo</title><g id="Layer_2" data-name="Layer 2"><g id="Layer_1-2" data-name="Layer 1"><path class="cls-1" d="M11.36.54H12L22.62,4.74,21.76,8l-18,.1C2.72,4.57,6.47.56,11.36.54"/><polygon class="cls-1" points="15.43 0.51 23.8 0.47 22.96 3.52 15.43 0.51"/><path class="cls-1" d="M4,9.35l14.07-.08a5.77,5.77,0,0,1,2.47,6.33c-1.26,4.06-5.92,4.62-6.52,4.63L0,20.32l1.91-7,5.91,0a13.19,13.19,0,0,1-2.48-1.92A8.87,8.87,0,0,1,4,9.35"/><polygon class="cls-1" points="30.67 7.93 23.35 7.97 24.08 5.34 30.67 7.93"/><polygon class="cls-1" points="24.43 4.11 31.26 6.83 25.27 0.93 24.43 4.11"/><polygon class="cls-1" points="26.58 0.45 30.38 0.43 32.28 6.08 26.58 0.45"/><polygon class="cls-1" points="31.71 0.42 33.56 5.9 35.37 0.41 31.71 0.42"/><path class="cls-1" d="M28.78,20.16l-8.74,0,3-11,19.07-.1A6,6,0,0,1,41,10.78a7,7,0,0,1-2.32,1.38l2.06,6.2,2.52-9.21,19-.1a4.69,4.69,0,0,1-1.85,2.4A10.28,10.28,0,0,1,55,13.22l-3.78,0-.57-2.06-2.42,8.87-15.09.08-2.27-7.66Z"/><path class="cls-1" d="M36.48,7.9l6.13,0a8.71,8.71,0,0,0,.16-1.27,9.55,9.55,0,0,0,0-1.24Z"/><path class="cls-1" d="M34.62,6.2l4.93-5A5.44,5.44,0,0,0,38.23.66,16.44,16.44,0,0,0,36.51.4Z"/><path class="cls-1" d="M40.63,1.93,35.85,6.76l6.46-2.63a5.87,5.87,0,0,0-.72-1.24,7.89,7.89,0,0,0-1-1"/><polygon class="cls-1" points="45.61 0.35 51.56 0.32 44.88 3.07 45.61 0.35"/><path class="cls-1" d="M43.57,7.86l.87-3.22L55,.3H56.4A6.86,6.86,0,0,1,61.84,3.5a4.93,4.93,0,0,1,.77,4.25Z"/><path class="cls-2" d="M67.19,5.62A2.79,2.79,0,0,0,70,2.79a2.81,2.81,0,0,0-5.63,0,2.79,2.79,0,0,0,2.83,2.79m0-5.16a2.35,2.35,0,1,1-2.34,2.36A2.34,2.34,0,0,1,67.16.46m.5,2.49a.8.8,0,0,0,.84-.87c0-.66-.52-.84-1.09-.83H66.08l0,3.16h.46V3h.59l.82,1.45h.53Zm-.33-1.24c.38,0,.71,0,.71.43s-.58.36-1,.36h-.48V1.71Z"/></g></g></svg>