<?xml version="1.0" encoding="utf-8"?>
<!-- Generator: Adobe Illustrator 22.0.1, SVG Export Plug-In . SVG Version: 6.00 Build 0)  -->
<svg version="1.1" id="Layer_1" xmlns="http://www.w3.org/2000/svg" xmlns:xlink="http://www.w3.org/1999/xlink" x="0px" y="0px"
	 viewBox="0 0 92.6 92.6" style="enable-background:new 0 0 92.6 92.6;" xml:space="preserve">
<style type="text/css">
	.st0{fill:#FFFFFF;}
	.st1{fill:none;stroke:#FFFFFF;stroke-width:4.31;stroke-miterlimit:10;}
</style>
<title>StartStopTransferIcon</title>
<g id="Layer_2_1_">
	<g id="Layer_1-2">
		<path class="st0" d="M66.6,41.5l-4.9-8.2c-0.3-0.5-0.8-0.8-1.3-0.8H54l-0.3-4.8c-0.1-0.8-0.7-1.5-1.6-1.5H22c-0.6,0-1,0.4-1,1V55
			c0,0.6,0.4,1,1,1h3.1l0.9-5.8c0-1.1,0.9-2,2-2h8.3c1.1,0,2,0.9,2,2l1,5.8H59l1-5.8c0-1.1,0.9-2,2-2h8c1.1,0,2.1,0.9,2.1,2
			c0,0,0,0,0,0l1,5.8h2.6V44.1C72.8,42.8,69.8,41.9,66.6,41.5z M41.3,41.2l0.5-2.9H26.5v-5h15.4l-0.2-2.8l5.6,5.2L41.3,41.2z
			 M54.9,41.6v-8.1h4.9c0.6,0,1.1,0.3,1.4,0.8l3.9,7.3H54.9z"/>
		<circle class="st0" cx="32.1" cy="54.5" r="2"/>
		<path class="st0" d="M32.2,48.6c-3.2,0-5.9,2.6-5.9,5.8c0,3.2,2.6,5.9,5.8,5.9c3.2,0,5.9-2.6,5.9-5.8c0,0,0,0,0,0
			C38,51.3,35.4,48.7,32.2,48.6z M32.1,57.6c-1.8,0-3.2-1.4-3.2-3.2s1.4-3.2,3.2-3.2c1.8,0,3.2,1.4,3.2,3.2
			C35.3,56.2,33.9,57.6,32.1,57.6C32.1,57.7,32.1,57.7,32.1,57.6L32.1,57.6z"/>
		<circle class="st0" cx="65.9" cy="54.5" r="2"/>
		<path class="st0" d="M66,48.6c-3.2,0-5.8,2.6-5.8,5.8s2.6,5.8,5.8,5.8s5.8-2.6,5.8-5.8v0C71.8,51.2,69.2,48.6,66,48.6z M65.9,57.6
			c-1.8,0-3.2-1.4-3.2-3.2c0-1.8,1.4-3.2,3.2-3.2c1.8,0,3.2,1.4,3.2,3.2C69.1,56.2,67.7,57.6,65.9,57.6
			C65.9,57.7,65.9,57.7,65.9,57.6L65.9,57.6z"/>
		<circle class="st1" cx="46.3" cy="46.3" r="44.1"/>
		<path class="st0" d="M46.3,6.5c22,0,39.8,17.8,39.8,39.8S68.3,86.1,46.3,86.1S6.5,68.3,6.5,46.3c0,0,0,0,0,0
			C6.5,24.3,24.3,6.5,46.3,6.5 M46.3,2.2C21.9,2.2,2.2,21.9,2.2,46.3s19.8,44.1,44.1,44.1c24.4,0,44.1-19.8,44.1-44.1
			C90.4,21.9,70.7,2.2,46.3,2.2C46.3,2.2,46.3,2.2,46.3,2.2z"/>
		<path class="st0" d="M74.8,53.2h1.6c0.3,0,0.6,0.2,0.6,0.5v1.8c0,0.3-0.2,0.5-0.6,0.5h-1.6c-0.3,0-0.6-0.2-0.6-0.5v-1.8
			C74.2,53.4,74.5,53.2,74.8,53.2z"/>
	</g>
</g>
</svg>
