<svg xmlns="http://www.w3.org/2000/svg" viewBox="0 0 25.23 25.23"><defs><style>.cls-1{fill:#4ba0eb;}.cls-2{fill:#fff;}</style></defs><title>TwitterColor</title><g id="Layer_2" data-name="Layer 2"><g id="Layer_1-2" data-name="Layer 1"><rect class="cls-1" width="25.23" height="25.23" rx="3.15" ry="3.15"/><path class="cls-2" d="M9.69,19a9.15,9.15,0,0,0,9.21-9.2c0-.14,0-.28,0-.42A6.59,6.59,0,0,0,20.5,7.72a6.1,6.1,0,0,1-1.86.51,3.27,3.27,0,0,0,1.43-1.79A6.43,6.43,0,0,1,18,7.23a3.24,3.24,0,0,0-5.6,2.21,3,3,0,0,0,.09.74A9.15,9.15,0,0,1,5.83,6.8a3.23,3.23,0,0,0,1,4.32,3.2,3.2,0,0,1-1.47-.41v0A3.25,3.25,0,0,0,8,13.93a3.41,3.41,0,0,1-.85.11A3.08,3.08,0,0,1,6.5,14a3.23,3.23,0,0,0,3,2.25,6.42,6.42,0,0,1-4.79,1.34,9.13,9.13,0,0,0,5,1.45"/></g></g></svg>