<svg xmlns="http://www.w3.org/2000/svg" viewBox="0 0 25.23 25.23"><defs><style>.cls-1{fill:#e93323;}.cls-2{fill:#fff;}</style></defs><title>YoutubeColor</title><g id="Layer_2" data-name="Layer 2"><g id="Layer_1-2" data-name="Layer 1"><rect class="cls-1" width="25.23" height="25.23" rx="3.15" ry="3.15"/><g id="_Group_" data-name="&lt;Group&gt;"><path id="_Path_" data-name="&lt;Path&gt;" class="cls-2" d="M21.72,8A2.39,2.39,0,0,0,20,6.32a56.31,56.31,0,0,0-7.42-.4,56.44,56.44,0,0,0-7.43.4A2.41,2.41,0,0,0,3.51,8a25.54,25.54,0,0,0-.39,4.61,25.45,25.45,0,0,0,.39,4.6,2.41,2.41,0,0,0,1.68,1.69,56.44,56.44,0,0,0,7.43.4,56.31,56.31,0,0,0,7.42-.4,2.39,2.39,0,0,0,1.68-1.69,24.83,24.83,0,0,0,.4-4.6A24.92,24.92,0,0,0,21.72,8Z"/><polygon id="_Path_2" data-name="&lt;Path&gt;" class="cls-1" points="10.67 15.44 15.64 12.62 10.67 9.79 10.67 15.44"/></g></g></g></svg>